<?xml version="1.0" standalone="no"?>
<!DOCTYPE svg PUBLIC "-//W3C//DTD SVG 20010904//EN"
 "http://www.w3.org/TR/2001/REC-SVG-20010904/DTD/svg10.dtd">
<svg version="1.0" xmlns="http://www.w3.org/2000/svg"
 width="249.000000pt" height="256.000000pt" viewBox="0 0 249.000000 256.000000"
 preserveAspectRatio="xMidYMid meet">

<g transform="translate(0.000000,256.000000) scale(0.100000,-0.100000)"
fill="#000000" stroke="none">
<path d="M638 2309 l3 -250 -38 3 -38 3 2 48 1 47 -37 0 -37 0 4 -67 c6 -93
16 -103 107 -103 110 0 105 -14 105 303 l0 267 -37 0 -38 0 3 -251z"/>
<path d="M787 2542 c-15 -16 -17 -50 -17 -269 0 -296 -5 -283 107 -283 107 0
103 -11 103 281 0 298 3 289 -104 289 -58 0 -76 -4 -89 -18z m121 -270 l2
-213 -37 3 -38 3 -3 190 c-3 231 -2 237 41 233 l32 -3 3 -213z"/>
<path d="M1035 2275 l0 -285 35 0 35 0 -3 180 c-2 109 0 180 6 180 5 0 24 -38
41 -85 44 -114 58 -114 102 0 17 47 35 88 40 90 4 3 5 -78 2 -180 l-6 -185 39
0 39 0 0 285 0 285 -36 0 -37 0 -43 -115 c-24 -63 -46 -115 -49 -115 -3 0 -25
52 -50 115 l-45 115 -35 0 -35 0 0 -285z"/>
<path d="M1437 2542 c-15 -16 -17 -50 -17 -269 0 -296 -5 -283 107 -283 98 0
101 5 105 158 l3 122 -52 0 c-58 0 -63 -6 -38 -54 9 -16 15 -55 15 -92 l0 -64
-35 0 -35 0 0 215 0 215 35 0 c33 0 35 -2 35 -35 0 -34 1 -35 38 -35 l37 0 -3
52 c-6 76 -20 88 -107 88 -57 0 -75 -4 -88 -18z"/>
<path d="M1679 2542 c6 -11 31 -88 57 -173 45 -150 46 -156 42 -266 l-3 -113
35 0 35 0 -3 115 c-4 114 -3 119 43 273 26 86 52 163 58 170 7 9 -2 12 -42 12
-43 0 -50 -3 -48 -17 3 -23 -35 -173 -43 -173 -11 0 -52 168 -45 180 4 6 -12
10 -45 10 -46 0 -50 -2 -41 -18z"/>
<path d="M1148 1719 c-11 -6 -18 -22 -18 -39 l0 -29 -339 -3 -339 -3 -27 -25
c-55 -51 -55 -46 -55 -617 0 -589 -2 -573 69 -620 33 -22 40 -23 292 -23 l259
0 -1 -27 c0 -16 -6 -57 -13 -93 l-12 -65 -42 -6 c-83 -11 -115 -87 -58 -136
27 -23 33 -23 169 -21 138 3 142 4 145 25 3 22 2 22 -140 25 l-143 3 0 25 0
25 325 0 325 0 3 -22 c4 -29 -12 -32 -168 -36 -118 -2 -125 -3 -125 -22 0 -19
8 -20 148 -23 145 -2 148 -2 172 22 32 32 34 85 5 111 -12 10 -39 21 -62 24
l-42 6 -18 85 c-9 47 -17 88 -18 93 0 4 118 7 263 7 373 0 360 -11 365 322 3
208 3 217 -17 237 -27 27 -27 62 0 84 20 17 20 26 17 280 -3 291 -7 308 -71
347 -30 19 -52 20 -359 20 -308 0 -328 1 -328 18 0 10 -7 28 -16 40 -13 18
-24 22 -72 22 -31 0 -65 -5 -74 -11z m110 -91 c3 -44 5 -47 40 -59 20 -6 54
-20 76 -31 l38 -20 34 33 34 33 27 -27 27 -27 -34 -35 -34 -35 18 -32 c11 -17
24 -50 31 -72 12 -40 14 -41 61 -46 48 -5 49 -5 52 -42 l3 -38 -43 0 c-45 0
-68 -13 -68 -38 0 -7 -12 -38 -27 -68 l-26 -54 33 -35 34 -35 -27 -27 -27 -27
-34 33 -35 34 -58 -25 c-32 -14 -66 -28 -75 -31 -12 -4 -18 -20 -20 -54 -3
-48 -3 -48 -38 -48 -35 0 -35 1 -40 49 -5 48 -6 49 -48 61 -23 7 -54 20 -67
29 -34 22 -47 20 -80 -14 l-29 -30 -23 22 c-29 27 -29 39 3 69 29 27 28 35 -9
124 -26 60 -26 60 -71 63 -45 3 -46 4 -46 37 0 33 1 34 48 41 47 6 49 8 65 53
8 25 21 61 28 78 12 31 11 34 -16 63 l-29 30 26 26 c25 26 26 26 45 8 47 -46
48 -46 98 -19 27 14 55 25 64 25 28 0 41 22 41 68 l0 43 38 -3 c37 -3 37 -4
40 -50z m-369 -162 c9 -11 10 -20 1 -35 -10 -19 -20 -21 -105 -21 l-95 0 0 35
0 35 94 0 c69 0 97 -4 105 -14z m999 -23 l3 -33 -169 0 c-148 0 -171 2 -176
16 -4 9 -4 25 0 36 5 17 16 18 172 16 l167 -3 3 -32z m-1126 -166 c-4 -84 2
-94 61 -99 35 -3 40 -7 59 -51 l21 -48 -27 -27 c-14 -16 -26 -36 -26 -46 0
-24 48 -84 81 -102 27 -13 30 -12 64 17 31 27 39 30 58 21 12 -7 34 -16 50
-22 23 -8 27 -15 27 -49 0 -55 19 -71 86 -71 66 0 94 22 94 75 0 31 4 36 46
55 l46 20 35 -30 c18 -17 38 -30 44 -30 15 0 98 80 104 101 4 13 -3 32 -23 56
l-29 36 21 49 c19 47 21 48 63 48 32 0 45 5 53 19 14 27 13 124 -2 139 -9 9
15 12 110 12 l122 0 0 -369 c0 -203 -3 -376 -6 -385 -6 -14 -74 -16 -674 -16
-600 0 -668 2 -674 16 -3 9 -6 182 -6 385 l0 369 113 0 112 0 -3 -73z m642
-999 c9 -46 16 -89 16 -95 0 -10 -47 -13 -201 -13 l-201 0 7 48 c4 26 11 68
17 95 l10 47 167 0 168 0 17 -82z"/>
<path d="M1140 1505 c-63 -20 -114 -66 -146 -131 -23 -47 -26 -63 -22 -122 6
-76 23 -115 70 -162 47 -48 102 -70 176 -70 115 0 206 68 238 178 56 190 -128
368 -316 307z m138 -50 c92 -28 154 -132 133 -225 -43 -193 -300 -218 -376
-38 -43 105 20 234 131 268 42 12 55 12 112 -5z"/>
<path d="M1190 1427 c-78 -41 -119 -70 -124 -90 -9 -35 -7 -127 4 -147 12 -23
121 -90 145 -90 26 0 142 67 149 86 3 8 6 48 6 88 0 82 -1 84 -91 134 -65 37
-57 35 -89 19z m82 -74 l49 -27 -3 -60 -3 -60 -48 -28 -48 -28 -49 28 -50 27
0 62 0 62 43 24 c23 14 46 25 51 26 4 1 30 -11 58 -26z"/>
<path d="M1166 1308 c-22 -31 -20 -64 6 -88 26 -24 56 -26 86 -4 28 19 30 74
4 97 -27 25 -78 22 -96 -5z m64 -43 c0 -8 -4 -15 -9 -15 -13 0 -22 16 -14 24
11 11 23 6 23 -9z"/>
</g>
</svg>
